<svg height="64" preserveAspectRatio="none" viewBox="0 0 64 64" width="64" xmlns="http://www.w3.org/2000/svg"><path d="m17.7943001 32.3353996s2.2840004 2.6903 4.7096996 4.2406006c8.0508003 5.1456985 8.7560005 9.4956017 10.8561993 7.3270988 2.1607018-.3381996 1.9081001-3.8857994-.1049004-4.6791992 0 0-.9780998-.6963005-1.982399-1.0578003-3.6499996-1.0619011-7.2618999-2.7082977-10.1033001-4.9273987 0 .0000001-1.7001991-2.0097007-3.3752994-.9033012z" fill="#ffb743"/><path d="m32.3071289 44.5986328c-.7338867 0-1.4438477-.7236328-2.6201172-1.921875-1.4257813-1.4541016-3.5805664-3.6494141-7.2504883-5.9951172-2.4135742-1.5429688-4.7143555-4.2382813-4.7373047-4.2651367l-.0913086-.1074219.1176758-.078125c.3544922-.234375.7382813-.3530273 1.1396484-.3530273 1.3017578 0 2.3554688 1.2275391 2.3994141 1.2792969 2.6240234 2.0458984 6.1030273 3.7431641 10.0429688 4.8886719 1.0166016.3652344 1.9794922 1.046875 2.0195313 1.0761719 1.2324219.4814453 1.7802734 1.9462891 1.6552734 3.0712891-.109375.9921875-.6914063 1.671875-1.5615234 1.8261719-.3906251.3955077-.7451172.5791014-1.1137696.5791014zm-14.3217773-12.2338867c.4575195.5209961 2.480957 2.7602539 4.5859375 4.105957 3.6933594 2.3613281 5.8603516 4.5693359 7.2944336 6.0302734 1.1303711 1.1523438 1.8125 1.8476563 2.4414063 1.8476563.3051758 0 .6113281-.1689453.9633789-.5322266l.0292969-.0302734.0410156-.0058594c.7861328-.1240234 1.2939453-.7119141 1.3935547-1.6142578.1142578-1.0332031-.3818359-2.375-1.5253906-2.8261719-.0361328-.0214844-1.0024414-.7050781-1.9785156-1.0566406-3.9628906-1.1523438-7.4711914-2.8632813-10.1381836-4.9462891-.0283203-.0292969-1.0424805-1.2089844-2.2270508-1.2089844-.3061525.0000001-.6015626.0795899-.8798829.2368165z" fill="#604c3f"/><path d="m19.1005993 60.5653992 1.1431007-13.0467987-.2823009-2.9277992c-3.7894993.9120979-8.0648994.7040977-11.3881989.2665977l-.1346998 2.6612015.3827991 13.1268997c-1.7436995.5849991-1.1767997 3.0400009-1.1767997 3.0400009h1.2657003 3.8334999l1-15.6669006.8929996-.1669998 1 15.8339005h3.1904011 3.9165993c1.5018997-4.5615007-1.4883003-3.9980012-3.6431007-3.120102z" fill="#05050f"/><path d="m22.8339844 63.8105469h-7.3144531l-.9985352-15.8105469-.6586914.1240234-1.0014648 15.6865234h-5.315918l-.0219727-.0966797c-.0058594-.0253906-.5532227-2.4902344 1.1708984-3.1552734l-.380371-13.0361328.1416016-2.8066406.1342773.0175781c4.3208008.5693359 8.2446289.4824219 11.3427734-.2636719l.1401367-.0341797.2958984 3.0712891-1.1254883 12.8671875c1.8725586-.7294922 3.1533203-.7099609 3.7138672.0625.4506836.6230469.4189453 1.7294922-.0942383 3.2880859zm-7.0800781-.25h6.8989258c.4604492-1.4326172.4946289-2.4335938.1010742-2.9775391-.5009766-.6923828-1.7714844-.6494141-3.605957.0986328l-.1899414.0771484 1.1611328-13.2509766-.2680664-2.7626953c-3.0742188.7158203-6.9262695.7988281-11.159668.2539063l-.1279297 2.5253906.3852539 13.209961-.0878906.0292969c-1.425293.4785156-1.1914063 2.3486328-1.1132813 2.796875h4.8789063l.9985351-15.647461 1.1274414-.2099609z" fill="#604c3f"/><path d="m9.1426001 30.8901005s-2.2007003-.405201-3.8511 6.2525005c-1.6508701 6.6562004-1.7460902 11.0937004-.4453101 11.5555992 1.2998099.461998 2.8340101 2.6875 3.84131-.5810013 0 0 1.7323999-.9169998.2006998-2.2383003-2.8520999-1.1815986-2.1508999-10.0673981-.5292997-11.5995979 0 0 2.4560003-2.2778015.7837-3.3892002z" fill="#ffb743"/><path d="m7.2480469 49.9921875c-.5019531 0-1.0151367-.3339844-1.5112305-.6572266-.3276367-.2128906-.6367188-.4140625-.9326172-.5185547-1.4160156-.5029296-1.2724609-5.0976562.366211-11.7041015 1.4609375-5.894043 3.3530273-6.3520508 3.8979492-6.3520508.0629883 0 .0966797.0068359.0966797.0068359l.046875.019043c.3876953.2578125.6010742.5961914.6342773 1.0068359.0952148 1.1748047-1.3413086 2.5214844-1.4023438 2.578125-1.0136719.9580078-1.7626953 5.2353516-1.1674805 8.4648438.2036133 1.1064453.6567383 2.5117188 1.659668 2.9277344l.0336914.0205078c.4931641.4257813.7182617.8623047.6694336 1.296875-.0698242.6181641-.6723633 1.0166016-.847168 1.1201172-.3842773 1.2216797-.8754882 1.7910156-1.5439452 1.7910156zm1.8203125-18.9819336c-.3554688 0-2.2016602.2973633-3.6557617 6.1625977-1.8154297 7.321289-1.5444336 11.0449218-.5244141 11.4072265.3232422.1152344.659668.3339844.9848633.5458984.4658203.3027344.9472656.6162109 1.375.6162109.543457 0 .9755859-.5439453 1.3198242-1.6621094l.0151367-.048828.0458984-.0244141c.0068359-.0039063.6972656-.3779297.7617188-.9541016.0385742-.3447266-.152832-.703125-.5693359-1.0664063-.8657227-.3701172-1.4848633-1.4433594-1.7910156-3.1044922-.5620117-3.0527344.0883789-7.6025391 1.2426758-8.6933594.0151367-.0136719 1.409668-1.3217773 1.3242188-2.3759766-.0263672-.3256836-.1899414-.5883789-.4990234-.8012695-.0078127-.0004881-.0180666-.0009764-.0297853-.0009764z" fill="#604c3f"/><path d="m21.3125 33.1123009c-1.3593998-2.6958008-2.7187004-2.6958008-2.7187004-2.6958008l-2.7578993-.7763996h-3.7602005l-2.7729998.7778988c-.2719002.0341015-1.4584999.3154011-2.9902 2.5068016l2.5937996 2.0937996.4111004-.4522019-.7441998 10.2910004c3.3232994.4375 7.5986996.6455002 11.3881989-.2665977l-1.2425995-10.8222008.4687004 1.125c1.4687996-.5625 2.125-1.7812996 2.125-1.7812996z" fill="#f7f8f8"/><path d="m13.9643555 45.3554688c-1.7026367 0-3.5219727-.1259766-5.4072266-.3740234l-.1171875-.015625.0087891-.1171875.7177734-9.9306641-.2470703.2714844-.0917969-.0732422-2.6845703-2.1674805.0668945-.0957031c1.5449219-2.2099609 2.7460938-2.5175781 3.0771484-2.559082l2.7885742-.7788086 3.7939453.0048828 2.7436523.7719727c.1821289.0097656 1.503418.1713867 2.8110352 2.7636719l.0292969.0585938-.03125.0576172c-.0273438.0507813-.6953125 1.265625-2.1899414 1.8388672l-.1137695.0429688-.1748047-.4199219 1.1542969 10.0527344-.1074219.0253906c-1.7729492.4267576-3.8007812.6435545-6.0263671.6435545zm-5.2578125-.6064454c4.2250977.5449219 8.0649414.4619141 11.1181641-.2539063l-1.3310547-11.5917969.7617188 1.828125c1.1572266-.484375 1.7719727-1.3916016 1.9145508-1.6240234-1.2890625-2.5166016-2.5644531-2.565918-2.5771484-2.565918l-.0327148-.0048828-2.7412109-.7714844h-3.7260742l-2.7563477.7729492c-.2319336.0307617-1.3632813.2709961-2.8540039 2.3632813l2.4106445 1.9462891.5751953-.6328125z" fill="#604c3f"/><path d="m9.9888 4.10742s-5.2388-.9990199-8.3638 5.3935604c-3.125 6.3926201.4453101 13.8769188 3.9102001 15.5097198z" fill="#231815"/><path d="m5.6245117 25.190918-.1425781-.0668945c-1.7539063-.8266602-3.434082-3.0219727-4.3852539-5.7290039-.6943359-1.9770508-1.5639648-5.8984375.4160156-9.9487305 2.4355469-4.9824219 6.1850586-5.5205078 7.684082-5.5205078.5009766 0 .8027344.0566406.8154297.059082l.1254883.0239258-.0268555.1245117zm3.5722656-21.0151367c-1.4521484 0-5.0859375.5244141-7.4594727 5.3798828-1.9399414 3.96875-1.0864258 7.8164063-.4047852 9.7563477.8896484 2.5322266 2.4921875 4.6743164 4.1137695 5.5151367l4.3925783-20.6152344c-.1289063-.0161133-.3510742-.0361328-.6420899-.0361328z" fill="#604c3f"/><path d="m23.0205002 19.0337009s2.0669003-3.086401 2.6068993.9013996c.5405998 3.9877987-2.2777996 5.0361004-2.8163986 3.533699" fill="#ffb743"/><path d="m23.7060547 24.2485352c-.4633789 0-.8447266-.2685547-1.0126953-.737793l.2353516-.0839844c.1611328.4487305.5576172.6572266 1.0322266.5395508.8120117-.1982422 1.8930664-1.4306641 1.5424805-4.0146484-.1567383-1.1577148-.4619141-1.8212891-.8828125-1.9189453-.5576172-.1289063-1.2680664.7294922-1.4960938 1.0703125l-.2080078-.1386719c.0375977-.0561523.9228516-1.3730469 1.7602539-1.175293.5463867.1264648.8974609.8232422 1.074707 2.1293945.3720703 2.7470703-.831543 4.0712891-1.730957 4.2910156-.1079102.0263672-.2128907.0390626-.3144532.0390626z" fill="#604c3f"/><path d="m12.5004997 27.8817997c.0361004.5151997-.0756998 1.1021004-.4247999 1.7583008 3.1216002 3.3785 3.7602005.3218002 3.7602005.3218002s-.0493002-.875-.0005007-2.0644016c.0347004-.8539982-3.4598999-1.7870999-3.3348999-.0156994z" fill="#ffb743"/><path d="m14.5483398 31.3549805c-.7026367 0-1.5654297-.5488281-2.5644531-1.6298828l-.0600586-.0654297.0415039-.078125c.3100586-.5830078.4482422-1.1518555.4106445-1.690918-.0224609-.3149414.0581055-.5732422.2392578-.7670898.2275391-.2446289.6074219-.3740234 1.0986328-.3740234.7631836 0 1.6630859.3149414 2.0488281.7163086.137207.1430664.2036133.2895508.1977539.4365234-.0478516 1.1689453 0 2.0439453.0004883 2.0527344l.0004883.0161133-.0029297.0161133c-.0029296.0136718-.2983397 1.3676757-1.4101562 1.3676757zm-2.321289-1.7353516c.9238281.9853516 1.7045898 1.4853516 2.3212891 1.4853516.8544922 0 1.1293945-1.019043 1.1616211-1.1538086-.0063477-.1318359-.0439453-.9697266.0004883-2.059082.0039063-.0947266-.0673828-.1899414-.1279297-.2529297-.3388672-.3525391-1.1767578-.6396484-1.8686523-.6396484-.2929688 0-.6894531.0512695-.9160156.2944336-.1318359.1411133-.1899414.3359375-.1728516.5791016.0395507.5615233-.0942384 1.1489257-.3979493 1.7465819z" fill="#604c3f"/><path d="m25.5 14.8319998s-.5596008 2.0971994-.75 4.4243002c-.1942997 2.3775005.5419998 4.4981003-.8213005 5.8614006-1.6444988 1.6444988-4.6308002 3.4281998-9.3446999 3.4281998s-7.7089996-2.1152-9.8759899-4.3330002c-1.6250002-1.6625996-1.4145503-9.3809004-1.4145503-9.3809004s-1.2519593-10.2856097 12.2065406-10.2856097c11 0 10 10.2856097 10 10.2856097z" fill="#ffb743"/><path d="m14.5839844 28.6708984c-5.1044922 0-8.1323242-2.4946289-9.965332-4.3706055-1.6430664-1.6811523-1.4589844-9.1542969-1.4501953-9.4716797-.0039063-.0200195-.4355469-3.8525391 2.2080078-6.8369141 2.0981445-2.3691405 5.5039062-3.5703124 10.1235351-3.5703124 3.3994141 0 6.0092773.9765625 7.7563477 2.9018555 2.7675781 3.0493164 2.3725586 7.4765625 2.3681641 7.5209961-.0092773.0410156-.5625 2.1337891-.75 4.4223633-.0600586.7358398-.0302734 1.4423828-.0014648 2.125.0639648 1.5234375.1196289 2.8388672-.855957 3.8144531-1.2939455 1.2939453-4.2402345 3.4648437-9.4331056 3.4648437zm.9160156-23.9995117c-4.5449219 0-7.8876953 1.1728516-9.9365234 3.4858398-2.5693359 2.9013672-2.1503906 6.6225586-2.1459961 6.659668-.0009766.0952148-.1894531 7.7026367 1.3798828 9.3085938 1.8017578 1.84375 4.7763672 4.2954102 9.7866211 4.2954102 5.1030273 0 7.9897461-2.125 9.2563477-3.3916016.8979492-.8979492.8447266-2.1625977.7827148-3.6269531-.0288086-.6904297-.059082-1.4047852.0024414-2.15625.1889648-2.3115234.7480469-4.425293.7539063-4.4462891.0004883-.0229492.3833008-4.3442383-2.3095703-7.3100586-1.697754-1.8701172-4.244629-2.8183594-7.5698243-2.8183594z" fill="#604c3f"/><ellipse cx="11.5" cy="18.546398" fill="#231815" rx="1" ry="3"/><circle cx="11.0205" cy="17.066898" fill="#f7f8f8" r=".4795"/><ellipse cx="21.5" cy="18.546398" fill="#231815" rx="1" ry="3"/><circle cx="21.0205" cy="17.066898" fill="#f7f8f8" r=".4795"/><path d="m4.9995098 19.0337009s-2.6821299-3.086401-3.3832998.9013996 2.9565401 5.0361004 3.6552701 3.533699" fill="#ffb743"/><path d="m4.1015625 24.2475586c-.2089844 0-.4291992-.0336914-.6533203-.1044922-1.2729492-.4003906-2.3710938-1.8632813-1.9550781-4.2294922.2143555-1.2211914.6416016-1.9282227 1.2685547-2.1025391 1.0639648-.296875 2.2807617 1.081543 2.3320313 1.140625l-.1884766.1640625c-.0117188-.0131836-1.1542969-1.3173828-2.0771484-1.0634766-.5258789.1459961-.8920898.7871094-1.0888672 1.9042969-.3896484 2.2172852.6152344 3.5805664 1.7841797 3.9482422.7216797.2250977 1.3945313.0258789 1.6347656-.4887695l.2265625.1054688c-.2163087.4648437-.7036134.7260742-1.2832032.7260742z" fill="#604c3f"/><path d="m26.2831993 9.78125c-.5258999-1.3706102-1.2987995-2.4531202-2.0902996-3.2402301-.5688992-2.35498-2.9013996-1.77247-2.9013996-1.77247s0-1.5-1.6665001-2.2914999c-1.4403992-.6840801-3.375.5-3.375.5s-3.0355997-2.828612-7.0732002 1.1538099c-2.2138996.2221703-4.9521899 1.7221703-6.6504298 6.3505396-2.1435599 5.8432999 1.29492 12.5596008 2.74511 12.9874001.84762.2495003.3594198-2.4589996 1.00102-5.4780998.4394002 1.1567993.9765 1.9361 1.3934999 2.0591011.5611005.164999 1.1719003-1.2925014 1.8174005-3.1675014.3687.2842007.7035999.4556007.9481993.4556007.4200001-.0004997 2.0596008-2.3944998 2.7745008-3.1133003.3797998 2.1107998 1.1258993 3.7612 1.9188995 3.9678001.7686005.2012005 1.7646008-.4610004 2.6991997-1.6968002.1201.1807003.2637005.3042011.4335995.3486004.7363014.1924 2.7901001-1.2588005 4.2393017-3.3261003 1.1317997 3.5215006 2.4476986 8.1313009 3.2411995 7.8270998.9930991-.3803998 1.7889995-8.3188001.5448989-11.5639497z" fill="#231815"/><path d="m5.3735352 23.6098633c-.043457 0-.0898438-.0073242-.137207-.0209961-.5366211-.1582031-1.2724609-1.0571289-1.9208984-2.3461914-1.3618164-2.7060547-2.3149414-6.965332-.90625-10.8041992 1.8906249-5.1533203 4.9970702-6.2426758 6.7109374-6.4272461 1.4462891-1.4155273 2.9277344-2.1333008 4.4042969-2.1333008 1.4814453 0 2.4726563.7255859 2.7397461.9462891.2871094-.1621094 1.2954102-.6850586 2.3452148-.6850586.3955078 0 .7548828.0756836 1.0693359.2250977 1.425293.6767578 1.6816406 1.8408203 1.7275391 2.2548828.1152344-.0185547.2915039-.0395508.503418-.0395508.71875 0 1.980957.2480469 2.3959961 1.8974609.8974609.8994141 1.6210938 2.0258789 2.0942383 3.2592773.5571289 1.4536133.7719727 4.0366211.574707 6.909668-.1420898 2.0654297-.5395508 4.5664063-1.1914063 4.815918-.0390625.0151367-.0800781.0224609-.121582.0224609-.7280273-.0004883-1.5512695-2.4438477-2.8203125-6.4682617-.1308594-.4140625-.2602539-.824707-.3876953-1.2231445-1.3881836 1.8920898-3.2211914 3.1933594-4.050293 3.1933594-.0639648 0-.1235352-.0073242-.1772461-.0209961-.1479492-.0390625-.2827148-.1274414-.4023438-.2641602-.9628906 1.2265625-1.9575195 1.8139648-2.7304688 1.6123047-.7851563-.2045898-1.5463867-1.6943359-1.9643555-3.8232422-.2475586.277832-.5649414.6806641-.8974609 1.1020508-1.0029297 1.2714844-1.5078125 1.8701172-1.7998047 1.8706055-.2353516 0-.5327148-.1274414-.8857422-.378418-.6679686 1.9204101-1.2055663 3.1030273-1.791992 3.1030273-.0415039 0-.0830078-.0058594-.1230469-.0175781-.4155274-.1225586-.8959961-.7636719-1.3168946-1.7431641-.2045898 1.125-.2636719 2.1845703-.3120117 3.0541992-.0737304 1.3276368-.118164 2.1289063-.6284179 2.1289063zm8.1508789-21.4819336c-1.4194336 0-2.8525391.7036133-4.2597656 2.0917969l-.0317383.03125-.043457.0043945c-1.6464844.1650391-4.6855469 1.1992188-6.5458984 6.269043-1.3808594 3.7641602-.4428711 7.9467773.8950195 10.605957.609375 1.2104492 1.3032227 2.081543 1.7680664 2.2182617.0249023.0073242.0473633.0112305.0668945.0112305.2734375 0 .3222656-.8774414.3789063-1.8925781.0546874-.9838868.1225585-2.2075196.3979491-3.5024414l.0878906-.4155273.1508789.3969727c.5043945 1.3271484 1.0219727 1.8979492 1.3120117 1.9833984.5541992.1640625 1.362793-2.2138672 1.6640625-3.0878906l.0566406-.1645508.1376953.105957c.359375.2773438.6689453.4296875.8720703.4296875.2143555-.0146484 1.050293-1.0742188 1.6035156-1.7753906.4169922-.5288086.8110352-1.0283203 1.0820313-1.3012695l.1694336-.1699219.0424805.2363281c.3833008 2.1289063 1.1176758 3.684082 1.8276367 3.8686523.6928711.1816406 1.6533203-.440918 2.5678711-1.6508789l.105957-.140625.0976563.1464844c.1083984.1625977.2294922.2626953.3613281.296875.0332031.0087891.0712891.0131836.1137695.0131836.7954102 0 2.6713867-1.4072266 3.9912109-3.2900391l.1445313-.2060547.0771484.2397461c.1518555.472168.3066406.9638672.4633789 1.4609375.8378906 2.6557617 1.9848633 6.293457 2.5820313 6.293457.0107422 0 .0214844-.0019531.0317383-.0058594.3613281-.1381836.8457031-1.8964844 1.0317383-4.5996094.1953125-2.8383789-.0136719-5.3818359-.5585938-6.8027344-.5878906-1.5317383-1.4458008-2.5834961-2.0620117-3.1962891l-.0249023-.0253906-.0083008-.0341797c-.3476563-1.4384766-1.3671875-1.7407227-2.1616211-1.7407227-.3408203 0-.5854492.0595703-.5878906.0600586l-.1542969.0385742-.0009765-.1591795c-.0004883-.0585938-.0244141-1.4331055-1.5952148-2.1791992-.2802734-.1333008-.6040039-.2006836-.9619141-.2006836-1.1464844 0-2.2827148.6875-2.2939453.6943359l-.0810547.0498047-.0693359-.0644531c-.0102539-.0097657-1.0332032-.940918-2.640625-.940918z" fill="#604c3f"/><path d="m14.5839996 26.4501991c-1.4931993 0-2.8417997-.5707989-3.2782993-1.1894989-.1582003-.2259998-.1045008-.5375996.1210995-.696701.2255001-.1581993.5370998-.1054993.6971998.1206017.3115005.4432983 2.8467007 1.6903992 4.7538996.4242992.2285004-.1518993.4561005-.1851006.6104012.0464001.1522999.2299995.0897999.3549995-.1406002.5077991-.8535996.5669002-1.8360005.7870998-2.7637006.7870998z" fill="#231815"/><ellipse cx="9.05275" cy="23.055199" fill="#e08e0b" rx="2.37405" ry="1.5088"/><ellipse cx="22.76025" cy="23.055199" fill="#e08e0b" rx="1.73975" ry="1.5088"/><g fill="#fff"><ellipse cx="15.4653" cy="9.1731" rx="1.40266" ry="2.791239" transform="matrix(.9830607 .1832803 -.1832803 .9830607 1.94322 -2.679099)"/><ellipse cx="17.2959" cy="9.50098" rx=".759458" ry="1.511219" transform="matrix(.983069 .1832358 -.1832358 .983069 2.033757 -3.008368)"/><ellipse cx="12.0347" cy="8.96582" rx=".759458" ry="1.511278" transform="matrix(.983069 .1832358 -.1832358 .983069 1.846619 -2.053388)"/></g><path d="m42.9794998 30.4165001s-8.6016006-4.3330002-1.7910004-22.1665001l14.2383003.3334999s7.5732002 19.0303001-1.5937996 21.0566006l-2.3339996-1.7583008-6.6063995 2.1161995-1.5596008-2.1234989s-.4580002.5601005-.3535004 2.5419998z" fill="#231815"/><path d="m43.1152344 30.625-.1923828-.0966797c-.0888672-.0454102-2.2080078-1.1430664-3.5087891-4.4619141-1.1933594-3.0429688-1.875-8.6113281 1.6572266-17.8608398l.0322266-.0825195.0878906.0019531 14.3212891.3354492.0302734.0766602c.2050781.5166016 4.9980469 12.715332 1.9394531 18.4882813-.7705078 1.4550781-1.9892578 2.3759766-3.6220703 2.7368164l-.0566406.012207-2.328125-1.7539063-6.6308594 2.1240234-1.4960938-2.0375977c-.1181641.2729492-.3154297.9467773-.2441406 2.3032227zm-1.8417969-22.2480469c-3.4619141 9.1098633-2.8017578 14.5854492-1.6357422 17.5771484 1.0410156 2.6674805 2.65625 3.8842773 3.2070313 4.2373047-.0595703-1.8217773.3720703-2.3725586.3916016-2.3959961l.1015625-.125 1.6025391 2.1811523 6.5820313-2.1083984 2.3398438 1.762207c1.5292969-.3530273 2.6728516-1.2265625 3.3994141-2.597168 2.8808594-5.4370117-1.5107422-17.1376953-1.9208984-18.2016602z" fill="#604c3f"/><path d="m54.7450981 59.1016006h-3.5057983l-.6982994-10.9160995-1.5761986-.2919006.282299 11.2080002h-3.3232994l-1.8857002-11.4160995v-3.0946999c3.7899971.9120979 8.0653992.7040977 11.3886986.2665977l-.2187996 2.6612015z" fill="#ffb743"/><path d="m54.8652344 59.2265625h-3.7431641l-.0078125-.1171875-.6914063-10.8183594-1.3291015-.2460937.28125 11.1816406h-3.5576172l-.0166016-.1044922-1.8857422-11.4160156-.0019531-3.2734375.1542969.0371094c3.0976563.7460938 7.0214844.8330078 11.3427734.2636719l.1542969-.0205078-.2314453 2.8154297zm-3.5087891-.25h3.2685547l.4580078-11.4628906.2060547-2.5126953c-4.2197266.5419922-8.0595703.4580078-11.1259766-.2519531v2.9365234l1.8671875 11.2910156h3.0888672l-.2832031-11.234375 1.8232422.3378906.0068359.0976563z" fill="#604c3f"/><path d="m49.3633003 57.4561005v6.2294006h-3.1903992-3.1934013c-1.4794998-3.6669006.7645989-3.9980011 2.919899-3.1201019l-.5107002-3.1092987z" fill="#05050f"/><path d="m49.4882813 63.8105469h-6.5927734l-.0322266-.078125c-.5654297-1.4023438-.6376953-2.4316406-.2148438-3.0595703.2822266-.4179688.7841797-.6396484 1.4501953-.6396484.484375 0 1.0488281.1162109 1.6416016.3359375l-.4990234-3.0380859h4.2470703zm-6.4238282-.25h6.1738281v-5.9794922h-3.7021484l.5224609 3.1845703-.2060547-.0839844c-.6386719-.2607422-1.2451172-.3984375-1.7539063-.3984375-.5878906 0-1.0058594.1787109-1.2431641.5302734-.361328.5351563-.2890623 1.4843751.2089845 2.7470704z" fill="#604c3f"/><path d="m54.9473 57.4561005-.1973 6.2294006h-3.875s-1.5116997-1.9794006.1806984-3.1366997l-.1973-3.092701h4.0889016z" fill="#05050f"/><path d="m54.8710938 63.8105469h-4.0576172l-.0380859-.0488281c-.0322266-.0429688-.7890625-1.0478516-.6230469-2.0800781.0761719-.4755859.3369141-.8779297.7744141-1.1943359l-.2011719-3.15625h4.3505859zm-3.9316407-.25h3.6894531l.1894531-5.9794922h-3.8271484l.1933594 3.03125-.0585938.0400391c-.4130859.2822266-.6582031.6416016-.7265625 1.0673828-.1298827.805664.3964844 1.633789.5400391 1.8408203z" fill="#604c3f"/><path d="m46.2056999 32.3353996s-2.2840004 2.6903-4.7097015 4.2406006c-8.0507965 5.1456985-8.7559967 9.4956017-10.8561993 7.3270988-2.1606998-.3381996-1.9080982-3.8857994.1049004-4.6791992 0 0 .9780998-.6963005 1.9824009-1.0578003 3.6500015-1.0619011 7.261898-2.7082977 10.1032982-4.9273987 0 .0000001 1.7002029-2.0097007 3.3753013-.9033012z" fill="#ffb743"/><path d="m31.6928711 44.5986328c-.3686523 0-.7231445-.1835938-1.1142578-.5791016-.8691406-.1542969-1.4516602-.8330078-1.5615234-1.8251953-.1245117-1.1259766.4228516-2.5908203 1.6816406-3.0869141.0136719-.0146484.9770508-.6962891 1.9858398-1.0585938 3.9482422-1.1494141 7.4277344-2.8457031 10.0683594-4.9091797.0263672-.0341797 1.0791016-1.2617188 2.3818359-1.2617188.4013672 0 .7851563.1186523 1.140625.3530273l.1171875.078125-.0908203.1074219c-.0234375.0268555-2.3242188 2.722168-4.7382813 4.2651367-3.6699219 2.3457031-5.8242188 4.5410156-7.2509766 5.9951172-1.1757811 1.1982424-1.8857421 1.9218752-2.6196288 1.9218752zm13.4418945-12.4707031c-1.1875 0-2.1992188 1.1787109-2.2089844 1.1914063-2.6845703 2.1005859-6.1923828 3.8115234-10.1635742 4.9667969-.9697266.3486328-1.9355469 1.0322266-1.9453125 1.0390625-1.1699219.4658203-1.6655273 1.8076172-1.5512695 2.8417969.0996094.9013672.6074219 1.4892578 1.3935547 1.6132813l.0410156.0058594.0292969.0302734c.3520508.3632813.6582031.5322266.9633789.5322266.6289063 0 1.3110352-.6953125 2.4418945-1.8476563 1.4335938-1.4609375 3.6005859-3.6699219 7.2939453-6.0302734 2.1054688-1.3457031 4.1289063-3.5849609 4.5859375-4.105957-.2783203-.1572268-.5732421-.2368166-.8798828-.2368166z" fill="#604c3f"/><path d="m44.0381012 44.5908012s-.8506012 3.6553001-.5381012 7.3428001c0 0 5.8633003.9179993 12.6133003 0 0 0-.1348-4.7998009-.6865005-7.0762024 0 .0000001-6.0166016.9384995-11.3886986-.2665977z" fill="#c30d23"/><path d="m49.8427734 52.4667969c-3.703125 0-6.3359375-.4052734-6.3623047-.4101563l-.0966797-.0146484-.008789-.0976563c-.3105469-3.6650391.5332031-7.3447266.5410156-7.3818359l.0283203-.1210938.1210938.0273438c1.8095703.40625 3.8857422.6113281 6.171875.6113281 2.9130859 0 5.1484375-.3427734 5.1699219-.3457031l.1142578-.0185547.0263672.1123047c.5488281 2.2626953.6894531 7.0537109.6904297 7.1015625l.0029297.1123047-.1113281.015625c-1.9960938.2714844-4.1113282.4091797-6.2871095.4091797zm-6.2265625-.6425781c.5068359.0722656 2.9414063.3925781 6.2265625.3925781 2.1240234 0 4.1894531-.1318359 6.1416016-.3916016-.0234375-.7236328-.1777344-4.7470703-.6533203-6.8271484-.4941406.0693359-2.5351563.3320313-5.09375.3320313-2.2529297 0-4.3056641-.1982422-6.1035156-.5898438-.1396485.6542969-.7714844 3.8642578-.5175782 7.0839844z" fill="#604c3f"/><path d="m54.857399 30.8901005s2.2001991-.405201 3.8506012 6.2525005c1.6514015 6.6562004 1.7461014 11.0937004.4453011 11.5555992-1.2998009.461998-2.8339996 2.6875-3.8408012-.5810013 0 0-1.732399-.9169998-.2011986-2.2383003 2.8526001-1.1815987 2.1513977-10.0673981.5292969-11.5995979-.0000001 0-2.4559976-2.2778015-.7831994-3.3892002z" fill="#ffb743"/><path d="m56.7509766 49.9921875c-.6679688 0-1.1591797-.5693359-1.5429688-1.7910156-.1748047-.1035156-.7773438-.5019531-.8476563-1.1201172-.0488281-.4345703.1767578-.8710938.6689453-1.296875l.0341797-.0205078c1.0029297-.4160156 1.4570313-1.8222656 1.6601563-2.9277344.5947266-3.2304688-.1542969-7.5078125-1.1689453-8.4658203-.0605469-.0556641-1.4960938-1.4023438-1.4013672-2.5771484.0332031-.4106445.2470703-.7490234.6347656-1.0068359l.046875-.019043s.0332031-.0068359.0966797-.0068359c.5449219 0 2.4365234.4580078 3.8974609 6.3520508 1.6396485 6.6064452 1.7832032 11.2001952.366211 11.7041015-.2958984.1044922-.6054688.3056641-.9326172.5185547-.4960937.3232421-1.008789.6572265-1.5117187.6572265zm-1.5722657-4.0058594c-.4169922.3642578-.6083984.7226563-.5693359 1.0664063.0654297.5791016.7548828.9501953.7617188.9541016l.0458984.0244141.0146484.0488281c.3447266 1.1181641.7763672 1.6621094 1.3193359 1.6621094.4287109 0 .9101563-.3134766 1.375-.6162109.3251953-.2119141.6621094-.4306641.9853516-.5458984 1.0205078-.3623047 1.2919922-4.0859375-.5244141-11.4072266-1.5019531-6.0585938-3.4072266-6.1816406-3.6855469-6.1616211-.3085938.2128906-.4726563.4755859-.4990234.8017578-.0849609 1.0537109 1.3095703 2.3618164 1.3232422 2.3745117 1.1552734 1.0917969 1.8066406 5.640625 1.2441406 8.6933594-.305664 1.6621093-.9248046 2.7353514-1.7910156 3.1054686z" fill="#604c3f"/><path d="m44.2373009 42.8554993 1.0439987-9.0868988-.4687996 1.125c-1.4687004-.5625-2.125-1.7812996-2.125-1.7812996 1.3594017-2.6958008 2.7187996-2.6958008 2.7187996-2.6958008l2.7578011-.7763996h3.7597008l2.7734985.7778988c.2714996.0341015 1.4580002.3154011 2.9902 2.5068016l-2.5937004 2.0937996-.4112015-.4522018.5987015 8.2812996c-4.9833984.8173026-9.3173981.2929-11.0439987.007801z" fill="#c30d23"/><path d="m49.765625 43.4111328c-2.5527344 0-4.5722656-.2714844-5.5488281-.4326172l-.1171875-.0195313.9560547-8.3251953-.1748047.4199219-.1132813-.0429688c-1.4951172-.5732422-2.1621094-1.7880859-2.1904297-1.8388672l-.0302734-.0576172.0292969-.0585938c1.3076172-2.5922852 2.6279297-2.7539063 2.8105469-2.7636719l2.7773438-.7768555 3.7939453.0043945 2.7734375.7783203c.3125.0375977 1.5136719.3457031 3.0585938 2.5551758l.0664063.0957031-2.7763672 2.2407227-.2470703-.2714844.5810547 8.0341797-.1123047.0185547c-1.7792971.2919924-3.6416017.4404299-5.536133.4404299zm-5.390625-.6601562c1.0078125.1621094 2.9541016.4101563 5.390625.4101563 1.8408203 0 3.6513672-.140625 5.3828125-.4189453l-.6162109-8.5273438.5751953.6328125 2.4101563-1.9462891c-1.4912109-2.0922852-2.6220703-2.3325195-2.8359375-2.359375l-2.7753907-.7768555h-3.7246094l-2.7753906.7763672c-.0117188 0-1.2871094.0493164-2.5761719 2.565918.1425781.2324219.7568359 1.1396484 1.9140625 1.6240234l.7626953-1.8286133z" fill="#604c3f"/><path d="m44.0381012 44.5908012.1991997-1.735302c1.7266006.285099 6.0606003.8095016 11.0439987-.0078011l.1455002 2.0097008c-3.3232994.4375001-7.5987015.6455003-11.3886986-.2665977z" fill="#f39800"/><path d="m50.0361328 45.3554688c-2.2265625 0-4.2539063-.2167969-6.0273438-.6435547l-.1074219-.0253906.2265625-1.9755859.1298828.0214844c.96875.1601563 2.9726563.4287109 5.5078125.4287109 1.8808594 0 3.7304688-.1474609 5.4951172-.4365234l.1357422-.0224609.1630859 2.2636719-.1162109.015625c-1.8857421.2480467-3.705078.3740233-5.4072265.3740233zm-5.8613281-.8603516c3.0517578.7158203 6.8935547.7978516 11.1191406.2539063l-.1279297-1.7558594c-1.7373047.2773438-3.5537109.4179688-5.4003906.4179688-2.4443359 0-4.4003906-.2490234-5.4189453-.4111328z" fill="#604c3f"/><path d="m51.4990005 27.8817997c-.0361023.5151997.0761986 1.1021004.4248009 1.7583008-3.1211014 3.3785-3.7597008.3218002-3.7597008.3218002s.0487976-.875 0-2.0644016c-.0341987-.8539982 3.4598999-1.7870999 3.3348999-.0156994z" fill="#ffb743"/><path d="m49.4511719 31.3549805c-1.1113281 0-1.40625-1.3540039-1.4091797-1.3676758l-.0039063-.0161133.0009766-.0161133c.0009766-.0087891.0478516-.8833008 0-2.0522461-.0058594-.1474609.0605469-.2944336.1982422-.4370117.3857422-.4013672 1.2851563-.7163086 2.0488281-.7163086.4902344 0 .8701172.1293945 1.0986328.3740234.1806641.1938477.2607422.4521484.2392578.7670898-.0380859.5380859.0996094 1.1069336.4101563 1.690918l.0419922.078125-.0605469.0654297c-.9990234 1.081543-1.8623047 1.6298829-2.5644531 1.6298829zm-1.1611328-1.4038086c.0332031.1425781.2998047 1.1538086 1.1611328 1.1538086.6171875 0 1.3974609-.5 2.3212891-1.4853516-.3037109-.5986328-.4375-1.1855469-.3984375-1.746582.0175781-.2431641-.0410156-.4379883-.1728516-.5791016-.2255859-.2431641-.6230469-.2944336-.9150391-.2944336-.6923828 0-1.5302734.2871094-1.8691406.6396484-.0605469.0629883-.1318359.1582031-.1279297.253418.0449219 1.0898438.0068359 1.928711.0009766 2.0585938z" fill="#604c3f"/><path d="m38.5 14.8319998s.5596008 2.0971994.75 4.4243002c.1943016 2.3775005-.5419998 4.4981003.8213005 5.8614006 1.6445007 1.6444988 4.6307983 3.4281998 9.3446999 3.4281998s7.7089996-2.1152 9.8759995-4.3330002c1.625-1.6625996 1.4141006-9.3809004 1.4141006-9.3809004s1.2518997-10.2856097-12.2061005-10.2856097c-11 0-10 10.2856097-10 10.2856097z" fill="#ffb743"/><path d="m49.4160156 28.6708984c-5.1933594 0-8.1386719-2.1708984-9.4335938-3.4648438-.9746094-.9755859-.9199219-2.2910156-.8554688-3.8139648.0292969-.6831055.0585938-1.3896484-.0019531-2.1254883-.1865234-2.2895508-.7402344-4.3813477-.7460938-4.4023438-.0078125-.0644531-.4023438-4.4916992 2.3642578-7.5410156 1.748047-1.9252929 4.357422-2.9018554 7.7568361-2.9018554 4.6191406 0 8.0253906 1.2011719 10.1230469 3.5698242 2.6435547 2.9848633 2.2119141 6.8173828 2.2070313 6.855957.0097656.2988281.1943359 7.7719727-1.4482422 9.453125-1.8339844 1.8759766-4.8613282 4.3706055-9.9658204 4.3706055zm-.9160156-23.9995117c-3.3251953 0-5.8720703.9482422-7.5703125 2.8183594-2.6923828 2.9658203-2.3095703 7.2871094-2.3056641 7.3300781.0019531.0009766.5615234 2.1147461.7509766 4.4262695.0605469.7514648.03125 1.4658203.0019531 2.15625-.0615234 1.4643555-.1152344 2.7290039.7832031 3.6269531 1.2666016 1.2666016 4.1533203 3.3916016 9.2558594 3.3916016 5.0097656 0 7.984375-2.4516602 9.7861328-4.2954102 1.5703125-1.605957 1.3808594-9.2133789 1.3789063-9.2900391.0058594-.0556641.421875-3.7822266-2.1474609-6.6806641-2.0488282-2.3115233-5.390625-3.4833983-9.9335938-3.4833983z" fill="#604c3f"/><ellipse cx="52.5" cy="18.546398" fill="#231815" rx="1" ry="3"/><circle cx="52.9795" cy="17.066898" fill="#f7f8f8" r=".4795"/><ellipse cx="42.5" cy="18.546398" fill="#231815" rx="1" ry="3"/><circle cx="42.9795" cy="17.066898" fill="#f7f8f8" r=".4795"/><path d="m49.4160004 26.4501991c1.4931984 0 2.8418007-.5707989 3.2783012-1.1894989.1581993-.2259998.1044998-.5375996-.1211014-.696701-.225502-.1581993-.5371017-.1054993-.6972008.1206017-.3115005.4432983-2.8466988 1.6903992-4.7538986.4242992-.2285004-.1518993-.4561005-.1851006-.6104012.0464001-.152298.2299995-.089798.3549995.1406021.5077991.8535996.5669002 1.8359986.7870998 2.7636987.7870998z" fill="#231815"/><ellipse cx="54.94725" cy="23.055199" fill="#e08e0b" rx="2.37405" ry="1.5088"/><ellipse cx="41.23975" cy="23.055199" fill="#e08e0b" rx="1.73975" ry="1.5088"/><path d="m38.6836014 11.5171003c1.5663986-6.1836004 8.9003982-11.0171003 17.0937004-6.9848704 3.639698-.3652401 6.3759994 4.2084899 6.6386986 10.4677701.4169998 9.9165001-.4403992 15.2099991-5.0946999 16.2299995l-.1611023-2.6840992-1.0468979 1.0942001s.0477982-.6655006.1171989-1.7563c-.3974991 1.3661995-1.8036995 2.3515987-1.8036995 2.3515987.6982002-4.1103992.6953011-13.7783985-.339901-17.375.0069008 2.8895998-2.8008003 4.6859999-4.5233994 4.7983007 0 0-.2089996-.5420017-.4950981-1.3941002-.75 1.3037987-1.5996017 1.7778988-1.5996017 1.7778988s-1.4874001-.6156998-2.6651001-2.2538996c-.3143997 1.0526991-.5625 1.7578001-.5625 1.7578001s-2.1786994-2.2650993-2.4286994-4.5463989c-3.3358994 10.0552006 1.4267998 17.9316006 1.4267998 17.9316006-4.3232994-2.3857003-6.8194008-10.4780007-4.5556984-19.4145003z" fill="#231815"/><path d="m57.2050781 31.3833008-.1523438-2.5439453-1.0888672 1.1376953.0244141-.3457031c0-.0004883.0273438-.3735352.0693359-1.0185547-.5595703 1.015625-1.5107422 1.690918-1.5595703 1.7250977l-.2451172.1713867.0507813-.2949219c.6660156-3.9243164.6621094-12.6362305-.15625-16.5756836-.4414063 2.5898438-3.0527344 4.0454102-4.5761719 4.1445313l-.0917969.0063477-.0322266-.0859375c-.0019531-.0048828-.171875-.4453125-.4111328-1.1435547-.7197266 1.1435547-1.4726563 1.5727539-1.5068359 1.5917969l-.0527344.0292969-.0556641-.0229492c-.0595703-.0249023-1.4130859-.5976563-2.5693359-2.0957031-.2773438.9121094-.4902344 1.519043-.4921875 1.5253906l-.0673828.1914063-.140625-.1464844c-.0839844-.0864258-1.9042969-2-2.3769531-4.1044922-2.96875 9.6508789 1.5253906 17.2617188 1.5722656 17.3388672l.2412109.3994141-.4091797-.2255859c-4.1269531-2.2773438-6.9824219-10.2143555-4.6162109-19.5546875 1.2558594-4.9594727 5.9648438-8.559082 11.1972656-8.559082 2.0058594 0 4.0390625.4970703 6.0410156 1.4770508.1269531-.0117188.2558594-.0175781.3818359-.0175781 3.4814453 0 6.0957031 4.3623047 6.3583984 10.6079102.4013672 9.5512695-.3193359 15.2895508-5.1933594 16.3574219zm.0625-3.1308594.1699219 2.8222656c4.5732422-1.112793 5.2460938-6.7475586 4.8535156-16.0693359-.2519531-6.0078125-2.8212891-10.3686523-6.1083984-10.3686523-.1298828 0-.2607422.0068359-.3925781.0200195l-.0361328.003418-.0322266-.015625c-1.9775391-.9736328-3.9833984-1.4672852-5.9619141-1.4672852-5.1191406 0-9.7265625 3.5205078-10.9550781 8.3706055-2.2607422 8.9233398.2753906 16.5332031 4.1054688 19.0395508-.9033203-1.7514648-4.1054688-8.9179688-1.2158203-17.6269531l.1796875-.5439453.0625.5698242c.2060547 1.8779297 1.7734375 3.7763672 2.2548828 4.3198242.0947266-.2802734.2792969-.8388672.4921875-1.5532227l.0732422-.2436523.1484375.206543c1.0146484 1.4116211 2.2734375 2.0541992 2.5537109 2.1855469.1923828-.125.8837891-.6259766 1.5009766-1.6992188l.1386719-.2407227.0878906.2636719c.2167969.6445313.390625 1.1152344.4599609 1.3012695 1.5615234-.1591797 4.3222656-1.8427734 4.3154297-4.6655273l-.0019531-.894043.2470703.8588867c1.0058594 3.4951172 1.0664063 12.7036133.3935547 17.1142578.4130859-.3461914 1.2294922-1.1264648 1.5097656-2.0913086l.3164063-1.0883789-.0712891 1.1313477c-.0400391.6254883-.0722656 1.1113281-.09375 1.4121094z" fill="#604c3f"/><ellipse cx="51.286152" cy="8.937988" fill="#fff" rx="1.138068" ry="2.6869" transform="matrix(-.9902308 .1394381 -.1394381 -.9902308 103.317574 10.637418)"/><ellipse cx="52.979" cy="9.263916" fill="#fff" rx=".711572" ry="1.680146" transform="matrix(-.9902021 .1396416 -.1396416 -.9902021 106.732544 11.038994)"/><ellipse cx="55.133801" cy="9.653076" fill="#fff" rx=".711559" ry="1.680026" transform="matrix(-.9566326 .2912973 -.2912973 -.9566326 110.688507 2.827195)"/></svg>